<?xml version="1.0" encoding="UTF-8"?>
<svg id="Layer_5" data-name="Layer 5" xmlns="http://www.w3.org/2000/svg" viewBox="0 0 193 180">
  <defs>
    <style>
      .cls-1 {
        opacity: .2;
      }

      .cls-1, .cls-2, .cls-3, .cls-4, .cls-5 {
        stroke-width: 0px;
      }

      .cls-1, .cls-4 {
        fill: #5c3400;
      }

      .cls-2 {
        fill: #fff;
      }

      .cls-2, .cls-3 {
        opacity: .15;
      }

      .cls-3 {
        fill: #acb165;
      }

      .cls-4, .cls-5 {
        opacity: .6;
      }

      .cls-5 {
        fill: #030;
      }
    </style>
  </defs>
  <path class="cls-5" d="M48.5,32.5c-2.96.23-13.4,1.41-22,10-2.11,2.11-7.03,7.58-9,16-3.8,16.2,6.57,29.26,8,31l1.71,1.5-.72,1.46c-.67,1.37-.79,2.93-.34,4.39,1.7,5.5,5.57,14.43,14.34,20.65,17.31,12.28,39.24,3.77,43.87,1.8,4.54-1.93,7.96-4.2,10.13-5.8,4.62,2.26,19.9,8.99,38,4,3.61-1,12.19-3.47,20-11,1.48-1.43,18.14-18.07,13-41-4.62-20.58-22.95-29.09-25-30-.33-1.43-.93-3.56-2-6-7.01-15.93-25.36-24.18-40-26-5.72-.71-23.32-2.9-37,9-6.34,5.52-9.47,12-11,16l-2,4Z"/>
  <path class="cls-4" d="M57.5,96.5h5.61l5.39-3,20,21,2-12,1-10h7.85l8.15-2-4,24v8c-.94,12.88.41,22.88,2,30,1.29,5.79,3.41,12.69,0,16-1.59,1.55-3.78,1.72-8,2-5.55.37-9.32-.1-14-1-2.11-.41-2.56-.61-3-1-2.22-1.99-.97-6.19,0-13,0,0,.03-.22,1-11,.4-4.43.68-10.88,0-19l-2-3-22-26Z"/>
  <polygon class="cls-2" points="91 133.43 103.5 122.5 96.5 118.5 81.57 126.42 91 133.43"/>
  <path class="cls-3" d="M109.5,26.5c3.82.74,16.61,3.06,29.6,9.25,1.32.63,2.33,1.14,3.4,1.75,7.41,4.29,16.91,9.79,18,19,.79,6.65-3.18,12.12-6,16-7.28,10.03-17.7,12.89-22,14-5.27,1.36-13.94,2.52-15,0-.61-1.44,1.65-3.19,6-8,4.37-4.82,9.63-10.7,13-18,1.88-4.08,4.94-10.68,2-16-.25-.46-1.82-4-4-4-.94,0-2.29.65-5,6-2.51,4.95-3.65,8.92-4,10-2.22,6.86-9.28,10.52-16,14-1.48.77-25.68,12.96-39,3-2.9-2.17-8.07-7.47-14-8-.99-.09-2.94-.24-4,1-1.46,1.71-.11,4.76,0,5,3.3,4.3,6.56,6.64,9,8,1.79,1,4.39,2.15,6,5,.49.87,1.43,2.53,1,4-1.15,3.96-11.41,4-12,4-8.04-.03-19.4-3.75-26-14-.96-1.48-7.23-11.55-4-23,2.1-7.44,8.3-15.8,13-15,1,.17,1.36.66,3,2,.33.27,7.67,6.18,15,8,2.93.73,8.52,2.58,11,0,.08-.08,1.46-1.56,1-3-.44-1.37-2.51-1.54-4-2-7.29-2.23-10.54-13.48-11-19-.08-1-.05-1.55,0-2,0,0,.6-4.94,7-9,7.96-5.04,21.36,5.82,48,11Z"/>
  <polygon class="cls-1" points="97.5 131.5 103.5 147.5 125.5 118.5 118.5 119.5 112.1 118.5 103.22 130.19 97.5 131.5"/>
</svg>