<?xml version="1.0" encoding="UTF-8"?>
<svg id="Layer_7" data-name="Layer 7" xmlns="http://www.w3.org/2000/svg" viewBox="0 0 126.64 113.4">
  <defs>
    <style>
      .cls-1, .cls-2 {
        opacity: .7;
      }

      .cls-1, .cls-2, .cls-3, .cls-4, .cls-5, .cls-6 {
        stroke-width: 0px;
      }

      .cls-1, .cls-6 {
        fill: #171600;
      }

      .cls-2 {
        fill: #aa5f13;
      }

      .cls-3 {
        fill: #45002e;
      }

      .cls-3, .cls-4 {
        opacity: .5;
      }

      .cls-4 {
        fill: #5c0016;
      }

      .cls-5 {
        fill: #9b4515;
      }

      .cls-5, .cls-6 {
        opacity: .6;
      }
    </style>
  </defs>
  <path class="cls-4" d="M68.47,111.84c-2.22-2.26-1.43-6.25-1-9,2.34-15.03-2.54-17.44-1-30,2.14-17.47,13.64-29.6,15-31,16.05-16.49,42.25-20.68,45-16,.28.47.17.79,0,3-.45,6.03,0,8.78,0,13,0,18.26,0,27.39-3,36-8.09,23.29-33.92,31.45-42,34-9.03,2.85-11.89,1.13-13,0Z"/>
  <path class="cls-3" d="M121.47,13.54v15.73c0,1.5-.46,2.96-1.33,4.18l-38.66,54.63c-.66.93-1.01,2.03-1.01,3.17v.45c0,1.19.96,2.15,2.15,2.15h0c1.28,0,2.48-.62,3.22-1.67l38.13-53.96c1.5-2.12,2.31-4.66,2.31-7.26V14.59c0-1.23-.39-2.43-1.12-3.42l-.57-.78c-.55-.75-1.67-.73-2.19.05h0c-.61.92-.94,2-.94,3.1Z"/>
  <path class="cls-6" d="M.47,62.84c-2.56,4.94,5.85,16.54,12,21,9.04,6.56,26.44,11.47,30,6,2.93-4.5-5.3-15.7-8-19-5.93-7.25-15.27-10.02-23-9-3.08.41-9.43-2.02-11,1Z"/>
  <path class="cls-2" d="M34.6,42.02c-1.89-.11-3.41-1.59-3.55-3.48-.27-3.65-.05-8.98,2.42-14.69,3.42-7.92,9.21-12.06,12-14,4.57-3.18,8.5-4.38,14-6,3.44-1.01,25.31-7.47,29-1,.29.51.54,1.23,0,5-.9,6.21-1.62,11.24-5,17-4.73,8.08-11.5,12.19-14.77,13.88-.16.08-.32.15-.49.21l-6.08,2.12c-1.5.52-3.05.86-4.63,1.02l-6.41.62c-1.08.1-2.16.13-3.24.07l-13.25-.74Z"/>
  <path class="cls-5" d="M22.99,38.17l-.11.07c-1.14.76-1.14,2.45,0,3.21l.11.07c.32.21.69.32,1.07.32h10.35c.4,0,.79-.12,1.12-.36l38.14-27.07c.51-.36.81-.95.81-1.57h0c0-1.07-.86-1.93-1.93-1.93h-.67c-.41,0-.81.13-1.14.37l-35.76,26.18c-.33.24-.73.37-1.14.37h-9.79c-.38,0-.75.11-1.07.32Z"/>
  <path class="cls-1" d="M20.88,78.11l19.23,12.5c.24.15.52.24.8.24h6.19c.36,0,.7-.13.97-.37h0c.71-.63.65-1.76-.13-2.31l-.09-.06c-.25-.17-.54-.26-.84-.26h-5.05c-.31,0-.62-.1-.87-.29l-18.22-13.43c-.25-.19-.56-.29-.87-.29h-.9c-1.03,0-1.74,1.03-1.37,1.99l.59,1.56c.11.29.31.54.57.71Z"/>
</svg>