<?xml version="1.0" encoding="UTF-8"?>
<svg id="Layer_6" data-name="Layer 6" xmlns="http://www.w3.org/2000/svg" viewBox="0 0 245.08 223.97">
  <defs>
    <style>
      .cls-1 {
        fill: #269;
        opacity: .4;
      }

      .cls-1, .cls-2, .cls-3 {
        stroke-width: 0px;
      }

      .cls-2 {
        fill: #6670aa;
        opacity: .6;
      }

      .cls-3 {
        fill: #55acee;
        opacity: .3;
      }
    </style>
  </defs>
  <path class="cls-1" d="M140.08,39.62c9.5,2.39,19.14,4.82,25,11.17,2.95,3.19,5.3,4.5,10,7.11,1.71.95,3,1.54,4,1.02,2.39-1.25,1.21-7.93,1-9.14-.37-2.08-2.38-11.72-16-21.33-12.08-8.53-34.58-17.94-60-11.17-19.73,5.25-31.9,17.75-36,22.35-24.39,27.37-23.92,67.84-13,95.49,2.38,6.03,8.42,20.83,23,33.52,21.07,18.35,45.34,19.58,60,20.32,17.19.87,44.76,2.26,66-17.27,11.24-10.33,16.48-22.64,19-30.48-2.32,1.1-5.82,2.82-10,5.08-10.72,5.79-17.78,10.74-20,12.19-20.89,13.65-56.75,7.06-62,6.1-10.77-1.98-20.84-3.83-32-11.17-4.77-3.14-25.37-16.69-30-43.68-4.38-25.55,8.74-44.57,11-47.75,2.32-3.25,15.27-21.39,37-24.38,9.66-1.33,17.94.76,23,2.03Z"/>
  <path class="cls-3" d="M41.83,223.97l172.17-.88c7.21-.04,14.24-2.31,20.1-6.5h0c3.25-2.32,5.77-5.53,7.25-9.24l.76-1.91c1.96-4.89,2.96-10.11,2.96-15.38v-38.08c0-1.88-.49-3.73-1.41-5.37h0c-1.68-2.97-4.26-5.34-7.38-6.75h0c-5.42-2.46-11.71-2.26-16.88.68-.78.44-1.56.94-2.34,1.5-3.48,2.5-5.39,5.19-6,6-6.51,8.57-26.49,14.76-42,17-13.19,1.91-32.51,4.7-54-5-8.14-3.67-31.3-14.13-40-40-8.54-25.38,2.99-47.32,5-51,2.84-5.19,9.35-17.1,23-24,27.65-13.97,61.85,4.11,70,11,.04.04,2.82,2.39,7,5,6.01,3.76,13.11,8.21,17,6,3.88-2.2,3.16-10.25,3-12-2.14-23.9-32.89-40.28-38-43C155.67,8.61,140.11.54,119.08.03,63.64-1.33,26.98,51.22,25.08,54.03,6.52,81.5,4.19,109.93,1.08,148.03c-1.43,17.55-1.24,32.82-.57,44.8.3,5.27,1.66,10.43,4,15.17h0c2.92,5.92,8.11,10.4,14.39,12.43h0c7.4,2.39,15.14,3.59,22.92,3.55Z"/>
  <path class="cls-2" d="M169.08,54.3c-2.01-1.98-5.03-4.73-9-7.53-4.97-3.5-23.99-16.45-48-11.83-10.29,1.98-17.23,6.37-19,7.53-11.29,7.39-16.79,17.37-19,21.5-6.91,12.9-7.67,24.87-8,31.18-.28,5.34-.71,15.28,3,26.88,6.06,18.92,18.97,29.14,23,32.25,13.01,10.04,25.77,11.97,39,13.98,8.31,1.26,20.49,3.12,36,0,17.24-3.47,30.11-11.31,38-17.2-2.25.79-4.58,1.52-7,2.15-28.64,7.5-52.58-1.49-57-3.23-9.28-3.65-22.26-8.75-33-22.58-4.18-5.39-13.05-16.8-13-33.33.04-12.71,5.33-21.9,7-24.73,2.07-3.49,6.71-11.11,16-16.13,7.02-3.79,13.18-4.02,20-4.3,5.56-.23,13.98.1,24,3.23l7,2.15Z"/>
</svg>