<?xml version="1.0" encoding="UTF-8"?>
<svg id="Layer_9" data-name="Layer 9" xmlns="http://www.w3.org/2000/svg" viewBox="0 0 150.16 154.19">
  <defs>
    <style>
      .cls-1 {
        opacity: .4;
      }

      .cls-1, .cls-2, .cls-3, .cls-4 {
        stroke-width: 0px;
      }

      .cls-1, .cls-2, .cls-4 {
        fill: #fff;
      }

      .cls-2 {
        opacity: .55;
      }

      .cls-3 {
        fill: #5b9821;
        opacity: .6;
      }

      .cls-4 {
        opacity: .3;
      }
    </style>
  </defs>
  <path class="cls-3" d="M70.15,121.19c.61,2.02,1.75,4.97,4,8,4.08,5.49,9.27,7.82,12,9,11.71,5.07,23.39,2.47,30,1,9.68-2.15,6.5-3.73,23-9,5.13-1.64,10.79-3.19,11-6,.13-1.72-1.83-3.16-3-4-11.99-8.58-22-12-22-12-11.03-3.76-16.54-5.65-20-6-5.25-.54-15.03-1.4-25,4-4.76,2.58-8.03,5.77-10,8h0c-3.29-.66-6.69-.58-9.95.24l-3.05.76-4,9,10.48-4,6.52,1Z"/>
  <path class="cls-3" d="M85.15,81.19c1.06-2.57,3.11-6.52,7-10,5.15-4.62,10.64-5.82,16-7,2.19-.48,11.2-2.32,23,0,7.7,1.51,18.27,5.12,18,8-.06.63-.6.9-2,2-3.94,3.1-5.65,5.66-7,7-2.63,2.61-11.62,9.06-24,11-14.58,2.28-25.97-2.92-30-5-4.87,0-9.69.99-14.16,2.92l-4.84,2.08,3-8,15-3Z"/>
  <path class="cls-3" d="M86.15,58.19c-.78-4.32-2.03-14.72,3-26,4.8-10.77,12.66-16.32,18-20C123.2,1.15,145.32-2.94,148.15,2.19c.58,1.04.23,2.24,0,3-5.82,19.19-8.72,28.78-12,33-3.38,4.35-12.99,16.35-30,20-8.49,1.82-15.7.89-20,0Z"/>
  <path class="cls-3" d="M68.15,71.19c2.47-2.69,8.07-9.49,10-20,1.86-10.13-.87-17.91-3-24-2.62-7.5-8.24-18.77-12-18-1,.21-1.55,1.2-2,2-8.89,15.91-8.51,14.47-9,16-2.6,8.07-2.32,14.51-2,22,.24,5.48.39,8.4,2,12,2.65,5.93,7.3,9.35,10,11l1,15,5-2v-14Z"/>
  <path class="cls-3" d="M49.15,120.19l5-7-2-7c-.98-.79-2.42-2.21-3-4.3-.85-3.07.63-5.91,1-6.7,3.14-6.67.8-22.64-4-34-1.88-4.45-6.91-15.94-19-24-3.87-2.58-10.25-4.39-23-8-.92-.26-3.35-.93-4,0-.66.93.96,2.81,2,5,2.08,4.36,1.2,8.48,1,11-.68,8.49,1.91,23.36,6,34,2.85,7.41,5.88,15.31,14,21,7.58,5.31,15.74,5.99,20,6l4,6,2,8Z"/>
  <path class="cls-4" d="M79.15,113.19c.14-.98,1.19-1.57,2-2,4.38-2.31,8-3,8-3,5.09-.97,8.94-1,10-1,4.4,0,8.13.05,9,2,.4.88.07,1.82,0,2-1.06,2.83-5.94,2.11-15,4-6.37,1.33-9.37,2.8-12,1-.22-.15-2.22-1.52-2-3Z"/>
  <path class="cls-1" d="M94.52,75.66c-.38,1.24.68,2.43,1.95,2.18.81-.16,1.71-.37,2.68-.65,3.74-1.11,3.92-2.03,7-3,1.4-.44,5.33-1.68,10-1,2.21.32,3.82.96,5,0,.8-.65,1.37-2,1-3-1.19-3.26-12-1.98-17-1-7.51,1.47-9.28,3.73-10,5-.28.49-.48.99-.63,1.47Z"/>
  <path class="cls-1" d="M96.15,43.19c-.71,1.12-2.06,3.26-3,3-1.17-.33-1.03-4.19-1-5,.07-2.01.58-7.66,6-15,2.63-3.56,7.82-10.58,15-11,.59-.03,3.5-.2,4,1,.55,1.32-2.2,3.3-5,6-6.69,6.46-13.27,16.74-16,21Z"/>
  <path class="cls-1" d="M31.15,98.19c-4.17.68-8.02-3.7-10-6-4.7-5.47-6.2-10.91-9-21-1.36-4.92.03-1.12-3-17-.59-3.09-1.23-6.31,0-7,.99-.55,2.9.7,4,2,1.7,2,1.57,4.2,2,7,.22,1.47,1.15,3.98,3,9,2.09,5.66,4.63,12.55,9,19,2.79,4.12,4.19,6.18,5,7,1.74,1.76,3.15,2.69,3,4-.17,1.49-2.26,2.71-4,3Z"/>
  <path class="cls-2" d="M60.15,48.19c-.25,2.01-.56,4.47-1,8-.19,1.49-.37,2.86-1,3-.72.16-1.62-1.36-2-2-3.18-5.42-3.03-13.14-3-14,.17-5.8,1.5-9.2,3-13,.69-1.75,1.33-3.05,2-3,1.13.08,1.71,3.98,2,6,.51,3.55.84,8.61,0,15Z"/>
  <path class="cls-3" d="M13.15,139.19c1.87.09,5.08-.36,9-1,7.18-1.16,18.63-5.14,33-39,4.6-10.84,5.99-11.95,11-20,8.78-14.09,14.76-19.91,17-22,5.67-5.29,11.13-8.8,15-11l2,3c-3.66,3.11-8.69,7.75-14,14-2.59,3.05-10.45,12.61-19,30-9.26,18.85-6.72,21.26-13,31-4.43,6.88-12.46,16.18-28,24l-4,6-3.15-1.89c-4.17-2.5-6.5-7.21-5.96-12.04l.12-1.06Z"/>
</svg>