<?xml version="1.0" encoding="UTF-8"?>
<svg id="Layer_4" data-name="Layer 4" xmlns="http://www.w3.org/2000/svg" viewBox="0 0 149.14 154.71">
  <defs>
    <style>
      .cls-1 {
        opacity: .2;
      }

      .cls-1, .cls-2, .cls-3, .cls-4, .cls-5, .cls-6 {
        stroke-width: 0px;
      }

      .cls-1, .cls-3 {
        fill: #b89278;
      }

      .cls-2 {
        fill: #736357;
      }

      .cls-2, .cls-3 {
        opacity: .4;
      }

      .cls-4 {
        fill: #f2f2f2;
      }

      .cls-4, .cls-5 {
        opacity: .5;
      }

      .cls-5, .cls-6 {
        fill: #efb6b6;
      }
    </style>
  </defs>
  <path class="cls-6" d="M45.19,93.24c-1.29-.94-2.41-2.09-3.38-3.35s-2.04-2.32-2.72-2.89c-3.64-3.06-8.48-7.88-12.58-14.85-5.35-9.08-6.71-17.14-7-19-.95-6.11-2.24-14.41,2-23,3.98-8.06,10.68-12.03,14-14,5.92-3.51,12.28-4.68,25-7,4.01-.73,8.67-1.57,15-2,6.65-.45,11.89-.23,17,0,7.16.32,10.74.49,13,1,13.93,3.12,22.57,14.94,27,21,2.28,3.12,5.12,7.08,7,13,1.28,4.05,1.38,6.68,2,14,1.34,15.76,1.76,13.5,2,20,.41,11.16.63,16.9-2,24-1.28,3.45-3.74,9.88-10,15-8.43,6.89-18.31,6.96-24,7-9.64.07-16.6-2.64-25-6-7.04-2.82-17.09-7.65-28-16l-3.09-2.21c-.26-.18-3.41-3.98-3.41-4.29l3,3c0-.83.67-1,1.5-1h1.5c9.73,8.07,24.44,17.61,43.5,21.5,18.03,3.67,25.75-.6,28-2,5.5-3.41,8.37-8.21,10-11,5.43-9.31,5.23-18.28,5-29-.3-13.94-3.49-24.04-6-32-2.33-7.4-3.62-11.34-7-16-6.3-8.67-14.54-12.46-18-14-9.72-4.33-18.04-4.19-30-4-8.09.13-15.54.25-25,3-10.1,2.93-22.43,6.51-29,18-4.45,7.79-4.27,15.75-4,19,.77,9.3,5.15,15.61,7,18l8.5,13.5,17,15-1,1-1.62,1.09-6.19-4.5Z"/>
  <path class="cls-5" d="M25,77.65c-3.37-4.4-6.61-9.45-9-16-1.79-4.91-4.72-12.92-3-23,1.84-10.82,7.98-17.77,10-20,8.18-9.03,17.84-11.56,31-15C76.25-2.18,93.55.42,100,1.65c6.95,1.32,13.15,2.56,20,7,9.03,5.86,13.42,13.55,17,20,8.75,15.75,10.16,30.31,11,40,1.62,18.69,2.62,30.22-5,41-8.1,11.46-20.96,14.99-26,16-11.95,2.4-21-1.05-36-7-2.83-1.12-35.76-14.57-56-41Z"/>
  <path class="cls-4" d="M134,105.65c-4.34.68-9.18-6.24-11-11-2.8-7.3-.12-13.74,1-16,.54-1.09,3.76-7.32,11-10,2.94-1.09,4.6-1.7,6-1,6.95,3.48,1.9,36.6-7,38Z"/>
  <path class="cls-4" d="M102,52.65c-9.4-7.13-10.53-18.28-11-23-.56-5.6.54-8.09,1-9,3.57-7.1,13.11-7.93,14-8,7.56-.55,13.04,3.71,16,6,2.45,1.9,9.48,7.36,11,17,.16.99,2.17,15.13-7,21-9.95,6.37-23.13-3.34-24-4Z"/>
  <path class="cls-4" d="M34,24.65c.14.66.83,3.25,6,6,1.96,1.04,13.93,7.09,26,1,2.89-1.46,10.08-5.08,11-12,.54-4.05-1.18-8.34-4-11-8.64-8.14-28.24-1.52-36,8-1.27,1.56-3.73,4.66-3,8Z"/>
  <ellipse class="cls-2" cx="68.68" cy="83.23" rx="16.48" ry="52.19" transform="translate(-38.88 91.8) rotate(-55.03)"/>
  <path class="cls-1" d="M8,142.65c-1.46-1.54-4.13-4.42-6-9C.02,128.79.01,124.62,0,120.65c-.01-4.65-.02-8.94,2-14,2.64-6.61,7.11-10.49,10-13,1.52-1.32,4.58-3.79,9-6,6.64-3.33,8.13-1.98,15-5,3.77-1.66,8.39-3.7,13-8,3.07-2.87,4.56-5.27,8-6,.75-.16,2.67-.47,7,1,6.2,2.1,7.1,4.36,18,12,2.81,1.97,4.33,2.93,5,5,.91,2.83-.58,5.29-2,9-2.05,5.34-1.42,6.67-3,13-3.3,13.2-10.08,23.61-11,25-4.24,6.41-7.83,11.82-15,16-1.64.95-7.97,4.47-17,5-12.34.72-23.88-4.47-31-12Z"/>
  <path class="cls-3" d="M8,139.65c-.58,1.55,5.65,5.21,7,6,4.7,2.76,11.3,6.63,20,7,17.09.73,28.88-12.6,31-15,7.57-8.56,10.36-18.52,11-21,2.25-8.7,3-17.77,7-23,.37-.48.88-2.38,1-5,.09-2.03-.64-4.65-2-5-1.73-.45-4.09,2.88-6,6-9.33,15.24-8.15,25.62-16,36-1.48,1.96-7.67,10.14-18,13-9.42,2.6-23.85,1.22-26,1-4.46-.45-8.56-1.18-9,0Z"/>
</svg>