<svg id="Layer_1" xmlns="http://www.w3.org/2000/svg" xmlns:xlink="http://www.w3.org/1999/xlink" viewBox="0 0 173.9 192.1"><style>.st0{clip-path:url(#SVGID_2_);} .st1{fill:#00A84E;} .st2{fill:#FFFFFF;}</style><defs><path id="SVGID_1_" d="M0 0h173.9v192.1H0z"/></defs><clipPath id="SVGID_2_"><use xlink:href="#SVGID_1_" overflow="visible"/></clipPath><path class="st0 st1" d="M14.2 37.6L72.8 3.8c8.8-5.1 19.6-5.1 28.4 0l58.6 33.8C168.6 42.7 174 52 174 62.2v67.6c0 10.1-5.4 19.5-14.2 24.6l-58.6 33.8c-8.8 5.1-19.6 5.1-28.4 0l-58.6-33.8C5.4 149.4 0 140 0 129.8V62.2c0-10.1 5.4-19.5 14.2-24.6"/><path class="st2" d="M25.8 55.6c-.3-.7.1-1.4.9-1.4h5.5c.5 0 .8.3.9.6l10.4 23.4h.5l10.4-23.4c.1-.3.4-.6.9-.6h5.5c.8 0 1.2.7.9 1.4L45 92.2c-.2.3-.4.6-.9.6h-.5c-.5 0-.8-.3-.9-.6L25.8 55.6zM67.9 55.3c0-.5.5-1 1-1H74c.5 0 1 .5 1 1v36c0 .5-.5 1-1 1h-5.1c-.5 0-1-.5-1-1v-36zM84.9 55.3c0-.5.4-1 1-1h5c.5 0 1 .5 1 1v30.5h13.9c.6 0 1 .5 1 1v4.5c0 .5-.4 1-1 1H85.9c-.6 0-1-.5-1-1v-36zM113.4 55.3c0-.5.4-1 1-1h12.9c10.5 0 19.1 8.5 19.1 19s-8.6 19.1-19.1 19.1h-12.9c-.5 0-1-.5-1-1V55.3zm13.2 30.3c7.1 0 12.2-5.3 12.2-12.4 0-7.1-5.2-12.4-12.2-12.4h-6.2v24.8h6.2z"/><g><path class="st2" d="M33.9 106.1c.1-.4.4-.8 1-.8h.9c.4 0 .8.2.9.5l12 25.6h.2l12-25.6c.2-.3.4-.5.9-.5h.9c.6 0 .9.4 1 .8l6.4 36.5c.2.8-.3 1.2-1 1.2H64c-.5 0-.9-.4-1-.8l-3.2-20.6h-.2l-9.5 21.3c-.1.3-.4.6-.9.6h-1c-.5 0-.8-.3-.9-.6l-9.6-21.3h-.2L34.3 143c-.1.4-.5.8-1 .8h-4.9c-.7 0-1.1-.5-1-1.2l6.5-36.5z"/></g><g><path class="st2" d="M73.5 142.4l16.9-36.6c.2-.3.4-.6.9-.6h.5c.5 0 .8.3.9.6l16.7 36.6c.3.7-.1 1.4-.9 1.4h-4.7c-.8 0-1.2-.3-1.6-1.1l-2.7-5.9H83.4l-2.7 5.9c-.2.5-.7 1.1-1.6 1.1h-4.7c-.8.1-1.2-.6-.9-1.4zM97 130.9l-5.4-12h-.2l-5.3 12H97z"/></g><g><path class="st2" d="M113.4 106.9c0-.5.4-1 1-1h12.9c10.5 0 19.1 8.5 19.1 19s-8.6 19.1-19.1 19.1h-12.9c-.5 0-1-.5-1-1v-36.1zm13.2 30.3c7.1 0 12.2-5.3 12.2-12.4 0-7.1-5.2-12.4-12.2-12.4h-6.2v24.8h6.2z"/></g></svg>